G04 #@! TF.GenerationSoftware,KiCad,Pcbnew,(5.1.4-0-10_14)*
G04 #@! TF.CreationDate,2019-08-25T21:06:09+02:00*
G04 #@! TF.ProjectId,Streifen,53747265-6966-4656-9e2e-6b696361645f,rev?*
G04 #@! TF.SameCoordinates,Original*
G04 #@! TF.FileFunction,Copper,L2,Bot*
G04 #@! TF.FilePolarity,Positive*
%FSLAX46Y46*%
G04 Gerber Fmt 4.6, Leading zero omitted, Abs format (unit mm)*
G04 Created by KiCad (PCBNEW (5.1.4-0-10_14)) date 2019-08-25 21:06:09*
%MOMM*%
%LPD*%
G04 APERTURE LIST*
%ADD10O,1.700000X1.700000*%
%ADD11R,1.700000X1.700000*%
%ADD12C,0.254000*%
G04 APERTURE END LIST*
D10*
X122000000Y-96380000D03*
X122000000Y-98920000D03*
X122000000Y-101460000D03*
D11*
X122000000Y-104000000D03*
X178000000Y-104000000D03*
D10*
X178000000Y-101460000D03*
X178000000Y-98920000D03*
X178000000Y-96380000D03*
D12*
G36*
X129874649Y-94488007D02*
G01*
X129738007Y-94624649D01*
X129630649Y-94785322D01*
X129556699Y-94963853D01*
X129519000Y-95153380D01*
X129519000Y-95346620D01*
X129556699Y-95536147D01*
X129630649Y-95714678D01*
X129738007Y-95875351D01*
X129874649Y-96011993D01*
X130035322Y-96119351D01*
X130213853Y-96193301D01*
X130403380Y-96231000D01*
X130596620Y-96231000D01*
X130786147Y-96193301D01*
X130964678Y-96119351D01*
X131125351Y-96011993D01*
X131261993Y-95875351D01*
X131369351Y-95714678D01*
X131443301Y-95536147D01*
X131481000Y-95346620D01*
X131481000Y-95153380D01*
X131443301Y-94963853D01*
X131369351Y-94785322D01*
X131261993Y-94624649D01*
X131125351Y-94488007D01*
X131002619Y-94406000D01*
X168997381Y-94406000D01*
X168874649Y-94488007D01*
X168738007Y-94624649D01*
X168630649Y-94785322D01*
X168556699Y-94963853D01*
X168519000Y-95153380D01*
X168519000Y-95346620D01*
X168556699Y-95536147D01*
X168630649Y-95714678D01*
X168738007Y-95875351D01*
X168874649Y-96011993D01*
X169035322Y-96119351D01*
X169213853Y-96193301D01*
X169403380Y-96231000D01*
X169596620Y-96231000D01*
X169786147Y-96193301D01*
X169964678Y-96119351D01*
X170048983Y-96063020D01*
X176810511Y-96063020D01*
X176871373Y-96253000D01*
X177873000Y-96253000D01*
X177873000Y-95250813D01*
X178127000Y-95250813D01*
X178127000Y-96253000D01*
X179128627Y-96253000D01*
X179189489Y-96063020D01*
X179165134Y-95982712D01*
X179065239Y-95763039D01*
X178924408Y-95567076D01*
X178748052Y-95402353D01*
X178542949Y-95275201D01*
X178316981Y-95190505D01*
X178127000Y-95250813D01*
X177873000Y-95250813D01*
X177683019Y-95190505D01*
X177457051Y-95275201D01*
X177251948Y-95402353D01*
X177075592Y-95567076D01*
X176934761Y-95763039D01*
X176834866Y-95982712D01*
X176810511Y-96063020D01*
X170048983Y-96063020D01*
X170125351Y-96011993D01*
X170261993Y-95875351D01*
X170369351Y-95714678D01*
X170443301Y-95536147D01*
X170481000Y-95346620D01*
X170481000Y-95153380D01*
X170443301Y-94963853D01*
X170369351Y-94785322D01*
X170261993Y-94624649D01*
X170125351Y-94488007D01*
X170002619Y-94406000D01*
X184594000Y-94406000D01*
X184594001Y-95594000D01*
X183480059Y-95594000D01*
X183478644Y-95594139D01*
X183441316Y-95594400D01*
X183422971Y-95596328D01*
X183404532Y-95596328D01*
X183398894Y-95596920D01*
X182623096Y-95683940D01*
X182587038Y-95691604D01*
X182551006Y-95698739D01*
X182545601Y-95700412D01*
X182545591Y-95700414D01*
X182545582Y-95700418D01*
X181801470Y-95936464D01*
X181767662Y-95950954D01*
X181733627Y-95964982D01*
X181728640Y-95967678D01*
X181044540Y-96343765D01*
X181014160Y-96364567D01*
X180983529Y-96384918D01*
X180979160Y-96388532D01*
X180381137Y-96890333D01*
X180355378Y-96916638D01*
X180329281Y-96942553D01*
X180325697Y-96946946D01*
X179836532Y-97555346D01*
X179816379Y-97586143D01*
X179795806Y-97616643D01*
X179793144Y-97621649D01*
X179431466Y-98313476D01*
X179417654Y-98347662D01*
X179403423Y-98381516D01*
X179401787Y-98386933D01*
X179401783Y-98386943D01*
X179401781Y-98386953D01*
X179232962Y-98960549D01*
X179236956Y-98920000D01*
X179213188Y-98678682D01*
X179142798Y-98446637D01*
X179028491Y-98232784D01*
X178874660Y-98045340D01*
X178687216Y-97891509D01*
X178473363Y-97777202D01*
X178241318Y-97706812D01*
X178060472Y-97689000D01*
X177939528Y-97689000D01*
X177758682Y-97706812D01*
X177526637Y-97777202D01*
X177312784Y-97891509D01*
X177125340Y-98045340D01*
X176971509Y-98232784D01*
X176857202Y-98446637D01*
X176786812Y-98678682D01*
X176763044Y-98920000D01*
X176786812Y-99161318D01*
X176851025Y-99373000D01*
X123148975Y-99373000D01*
X123213188Y-99161318D01*
X123236956Y-98920000D01*
X123213188Y-98678682D01*
X123142798Y-98446637D01*
X123028491Y-98232784D01*
X122874660Y-98045340D01*
X122687216Y-97891509D01*
X122473363Y-97777202D01*
X122241318Y-97706812D01*
X122060472Y-97689000D01*
X121939528Y-97689000D01*
X121758682Y-97706812D01*
X121526637Y-97777202D01*
X121312784Y-97891509D01*
X121125340Y-98045340D01*
X120971509Y-98232784D01*
X120857202Y-98446637D01*
X120786812Y-98678682D01*
X120763044Y-98920000D01*
X120765413Y-98944048D01*
X120575296Y-98329881D01*
X120561019Y-98295918D01*
X120547251Y-98261840D01*
X120544590Y-98256834D01*
X120173287Y-97570124D01*
X120152687Y-97539583D01*
X120132561Y-97508828D01*
X120128979Y-97504434D01*
X119631365Y-96902923D01*
X119605265Y-96877005D01*
X119579508Y-96850703D01*
X119575140Y-96847089D01*
X119391089Y-96696980D01*
X120810511Y-96696980D01*
X120834866Y-96777288D01*
X120934761Y-96996961D01*
X121075592Y-97192924D01*
X121251948Y-97357647D01*
X121457051Y-97484799D01*
X121683019Y-97569495D01*
X121873000Y-97509187D01*
X121873000Y-96507000D01*
X122127000Y-96507000D01*
X122127000Y-97509187D01*
X122316981Y-97569495D01*
X122542949Y-97484799D01*
X122748052Y-97357647D01*
X122924408Y-97192924D01*
X123065239Y-96996961D01*
X123165134Y-96777288D01*
X123189489Y-96696980D01*
X176810511Y-96696980D01*
X176834866Y-96777288D01*
X176934761Y-96996961D01*
X177075592Y-97192924D01*
X177251948Y-97357647D01*
X177457051Y-97484799D01*
X177683019Y-97569495D01*
X177873000Y-97509187D01*
X177873000Y-96507000D01*
X178127000Y-96507000D01*
X178127000Y-97509187D01*
X178316981Y-97569495D01*
X178542949Y-97484799D01*
X178748052Y-97357647D01*
X178924408Y-97192924D01*
X179065239Y-96996961D01*
X179165134Y-96777288D01*
X179189489Y-96696980D01*
X179128627Y-96507000D01*
X178127000Y-96507000D01*
X177873000Y-96507000D01*
X176871373Y-96507000D01*
X176810511Y-96696980D01*
X123189489Y-96696980D01*
X123128627Y-96507000D01*
X122127000Y-96507000D01*
X121873000Y-96507000D01*
X120871373Y-96507000D01*
X120810511Y-96696980D01*
X119391089Y-96696980D01*
X118970170Y-96353687D01*
X118939497Y-96333308D01*
X118909159Y-96312535D01*
X118904180Y-96309843D01*
X118904172Y-96309838D01*
X118904164Y-96309835D01*
X118439975Y-96063020D01*
X120810511Y-96063020D01*
X120871373Y-96253000D01*
X121873000Y-96253000D01*
X121873000Y-95250813D01*
X122127000Y-95250813D01*
X122127000Y-96253000D01*
X123128627Y-96253000D01*
X123189489Y-96063020D01*
X123165134Y-95982712D01*
X123065239Y-95763039D01*
X122924408Y-95567076D01*
X122748052Y-95402353D01*
X122542949Y-95275201D01*
X122316981Y-95190505D01*
X122127000Y-95250813D01*
X121873000Y-95250813D01*
X121683019Y-95190505D01*
X121457051Y-95275201D01*
X121251948Y-95402353D01*
X121075592Y-95567076D01*
X120934761Y-95763039D01*
X120834866Y-95982712D01*
X120810511Y-96063020D01*
X118439975Y-96063020D01*
X118214888Y-95943339D01*
X118180839Y-95929305D01*
X118147044Y-95914821D01*
X118141629Y-95913144D01*
X117394284Y-95687507D01*
X117358178Y-95680358D01*
X117322194Y-95672710D01*
X117316556Y-95672117D01*
X116539618Y-95595938D01*
X116519941Y-95594000D01*
X115406000Y-95594000D01*
X115406000Y-94406000D01*
X129997381Y-94406000D01*
X129874649Y-94488007D01*
X129874649Y-94488007D01*
G37*
X129874649Y-94488007D02*
X129738007Y-94624649D01*
X129630649Y-94785322D01*
X129556699Y-94963853D01*
X129519000Y-95153380D01*
X129519000Y-95346620D01*
X129556699Y-95536147D01*
X129630649Y-95714678D01*
X129738007Y-95875351D01*
X129874649Y-96011993D01*
X130035322Y-96119351D01*
X130213853Y-96193301D01*
X130403380Y-96231000D01*
X130596620Y-96231000D01*
X130786147Y-96193301D01*
X130964678Y-96119351D01*
X131125351Y-96011993D01*
X131261993Y-95875351D01*
X131369351Y-95714678D01*
X131443301Y-95536147D01*
X131481000Y-95346620D01*
X131481000Y-95153380D01*
X131443301Y-94963853D01*
X131369351Y-94785322D01*
X131261993Y-94624649D01*
X131125351Y-94488007D01*
X131002619Y-94406000D01*
X168997381Y-94406000D01*
X168874649Y-94488007D01*
X168738007Y-94624649D01*
X168630649Y-94785322D01*
X168556699Y-94963853D01*
X168519000Y-95153380D01*
X168519000Y-95346620D01*
X168556699Y-95536147D01*
X168630649Y-95714678D01*
X168738007Y-95875351D01*
X168874649Y-96011993D01*
X169035322Y-96119351D01*
X169213853Y-96193301D01*
X169403380Y-96231000D01*
X169596620Y-96231000D01*
X169786147Y-96193301D01*
X169964678Y-96119351D01*
X170048983Y-96063020D01*
X176810511Y-96063020D01*
X176871373Y-96253000D01*
X177873000Y-96253000D01*
X177873000Y-95250813D01*
X178127000Y-95250813D01*
X178127000Y-96253000D01*
X179128627Y-96253000D01*
X179189489Y-96063020D01*
X179165134Y-95982712D01*
X179065239Y-95763039D01*
X178924408Y-95567076D01*
X178748052Y-95402353D01*
X178542949Y-95275201D01*
X178316981Y-95190505D01*
X178127000Y-95250813D01*
X177873000Y-95250813D01*
X177683019Y-95190505D01*
X177457051Y-95275201D01*
X177251948Y-95402353D01*
X177075592Y-95567076D01*
X176934761Y-95763039D01*
X176834866Y-95982712D01*
X176810511Y-96063020D01*
X170048983Y-96063020D01*
X170125351Y-96011993D01*
X170261993Y-95875351D01*
X170369351Y-95714678D01*
X170443301Y-95536147D01*
X170481000Y-95346620D01*
X170481000Y-95153380D01*
X170443301Y-94963853D01*
X170369351Y-94785322D01*
X170261993Y-94624649D01*
X170125351Y-94488007D01*
X170002619Y-94406000D01*
X184594000Y-94406000D01*
X184594001Y-95594000D01*
X183480059Y-95594000D01*
X183478644Y-95594139D01*
X183441316Y-95594400D01*
X183422971Y-95596328D01*
X183404532Y-95596328D01*
X183398894Y-95596920D01*
X182623096Y-95683940D01*
X182587038Y-95691604D01*
X182551006Y-95698739D01*
X182545601Y-95700412D01*
X182545591Y-95700414D01*
X182545582Y-95700418D01*
X181801470Y-95936464D01*
X181767662Y-95950954D01*
X181733627Y-95964982D01*
X181728640Y-95967678D01*
X181044540Y-96343765D01*
X181014160Y-96364567D01*
X180983529Y-96384918D01*
X180979160Y-96388532D01*
X180381137Y-96890333D01*
X180355378Y-96916638D01*
X180329281Y-96942553D01*
X180325697Y-96946946D01*
X179836532Y-97555346D01*
X179816379Y-97586143D01*
X179795806Y-97616643D01*
X179793144Y-97621649D01*
X179431466Y-98313476D01*
X179417654Y-98347662D01*
X179403423Y-98381516D01*
X179401787Y-98386933D01*
X179401783Y-98386943D01*
X179401781Y-98386953D01*
X179232962Y-98960549D01*
X179236956Y-98920000D01*
X179213188Y-98678682D01*
X179142798Y-98446637D01*
X179028491Y-98232784D01*
X178874660Y-98045340D01*
X178687216Y-97891509D01*
X178473363Y-97777202D01*
X178241318Y-97706812D01*
X178060472Y-97689000D01*
X177939528Y-97689000D01*
X177758682Y-97706812D01*
X177526637Y-97777202D01*
X177312784Y-97891509D01*
X177125340Y-98045340D01*
X176971509Y-98232784D01*
X176857202Y-98446637D01*
X176786812Y-98678682D01*
X176763044Y-98920000D01*
X176786812Y-99161318D01*
X176851025Y-99373000D01*
X123148975Y-99373000D01*
X123213188Y-99161318D01*
X123236956Y-98920000D01*
X123213188Y-98678682D01*
X123142798Y-98446637D01*
X123028491Y-98232784D01*
X122874660Y-98045340D01*
X122687216Y-97891509D01*
X122473363Y-97777202D01*
X122241318Y-97706812D01*
X122060472Y-97689000D01*
X121939528Y-97689000D01*
X121758682Y-97706812D01*
X121526637Y-97777202D01*
X121312784Y-97891509D01*
X121125340Y-98045340D01*
X120971509Y-98232784D01*
X120857202Y-98446637D01*
X120786812Y-98678682D01*
X120763044Y-98920000D01*
X120765413Y-98944048D01*
X120575296Y-98329881D01*
X120561019Y-98295918D01*
X120547251Y-98261840D01*
X120544590Y-98256834D01*
X120173287Y-97570124D01*
X120152687Y-97539583D01*
X120132561Y-97508828D01*
X120128979Y-97504434D01*
X119631365Y-96902923D01*
X119605265Y-96877005D01*
X119579508Y-96850703D01*
X119575140Y-96847089D01*
X119391089Y-96696980D01*
X120810511Y-96696980D01*
X120834866Y-96777288D01*
X120934761Y-96996961D01*
X121075592Y-97192924D01*
X121251948Y-97357647D01*
X121457051Y-97484799D01*
X121683019Y-97569495D01*
X121873000Y-97509187D01*
X121873000Y-96507000D01*
X122127000Y-96507000D01*
X122127000Y-97509187D01*
X122316981Y-97569495D01*
X122542949Y-97484799D01*
X122748052Y-97357647D01*
X122924408Y-97192924D01*
X123065239Y-96996961D01*
X123165134Y-96777288D01*
X123189489Y-96696980D01*
X176810511Y-96696980D01*
X176834866Y-96777288D01*
X176934761Y-96996961D01*
X177075592Y-97192924D01*
X177251948Y-97357647D01*
X177457051Y-97484799D01*
X177683019Y-97569495D01*
X177873000Y-97509187D01*
X177873000Y-96507000D01*
X178127000Y-96507000D01*
X178127000Y-97509187D01*
X178316981Y-97569495D01*
X178542949Y-97484799D01*
X178748052Y-97357647D01*
X178924408Y-97192924D01*
X179065239Y-96996961D01*
X179165134Y-96777288D01*
X179189489Y-96696980D01*
X179128627Y-96507000D01*
X178127000Y-96507000D01*
X177873000Y-96507000D01*
X176871373Y-96507000D01*
X176810511Y-96696980D01*
X123189489Y-96696980D01*
X123128627Y-96507000D01*
X122127000Y-96507000D01*
X121873000Y-96507000D01*
X120871373Y-96507000D01*
X120810511Y-96696980D01*
X119391089Y-96696980D01*
X118970170Y-96353687D01*
X118939497Y-96333308D01*
X118909159Y-96312535D01*
X118904180Y-96309843D01*
X118904172Y-96309838D01*
X118904164Y-96309835D01*
X118439975Y-96063020D01*
X120810511Y-96063020D01*
X120871373Y-96253000D01*
X121873000Y-96253000D01*
X121873000Y-95250813D01*
X122127000Y-95250813D01*
X122127000Y-96253000D01*
X123128627Y-96253000D01*
X123189489Y-96063020D01*
X123165134Y-95982712D01*
X123065239Y-95763039D01*
X122924408Y-95567076D01*
X122748052Y-95402353D01*
X122542949Y-95275201D01*
X122316981Y-95190505D01*
X122127000Y-95250813D01*
X121873000Y-95250813D01*
X121683019Y-95190505D01*
X121457051Y-95275201D01*
X121251948Y-95402353D01*
X121075592Y-95567076D01*
X120934761Y-95763039D01*
X120834866Y-95982712D01*
X120810511Y-96063020D01*
X118439975Y-96063020D01*
X118214888Y-95943339D01*
X118180839Y-95929305D01*
X118147044Y-95914821D01*
X118141629Y-95913144D01*
X117394284Y-95687507D01*
X117358178Y-95680358D01*
X117322194Y-95672710D01*
X117316556Y-95672117D01*
X116539618Y-95595938D01*
X116519941Y-95594000D01*
X115406000Y-95594000D01*
X115406000Y-94406000D01*
X129997381Y-94406000D01*
X129874649Y-94488007D01*
G36*
X120971509Y-100772784D02*
G01*
X120857202Y-100986637D01*
X120786812Y-101218682D01*
X120763044Y-101460000D01*
X120786812Y-101701318D01*
X120857202Y-101933363D01*
X120971509Y-102147216D01*
X121125340Y-102334660D01*
X121312784Y-102488491D01*
X121526637Y-102602798D01*
X121758682Y-102673188D01*
X121939528Y-102691000D01*
X122060472Y-102691000D01*
X122241318Y-102673188D01*
X122473363Y-102602798D01*
X122687216Y-102488491D01*
X122874660Y-102334660D01*
X123028491Y-102147216D01*
X123142798Y-101933363D01*
X123213188Y-101701318D01*
X123236956Y-101460000D01*
X123213188Y-101218682D01*
X123142798Y-100986637D01*
X123028491Y-100772784D01*
X122908849Y-100627000D01*
X177091151Y-100627000D01*
X176971509Y-100772784D01*
X176857202Y-100986637D01*
X176786812Y-101218682D01*
X176763044Y-101460000D01*
X176786812Y-101701318D01*
X176857202Y-101933363D01*
X176971509Y-102147216D01*
X177125340Y-102334660D01*
X177312784Y-102488491D01*
X177526637Y-102602798D01*
X177758682Y-102673188D01*
X177939528Y-102691000D01*
X178060472Y-102691000D01*
X178241318Y-102673188D01*
X178473363Y-102602798D01*
X178687216Y-102488491D01*
X178874660Y-102334660D01*
X179028491Y-102147216D01*
X179142798Y-101933363D01*
X179213188Y-101701318D01*
X179236956Y-101460000D01*
X179213188Y-101218682D01*
X179142798Y-100986637D01*
X179028491Y-100772784D01*
X178908849Y-100627000D01*
X179154826Y-100627000D01*
X179177923Y-100846751D01*
X179185329Y-100882830D01*
X179192218Y-100918942D01*
X179193856Y-100924369D01*
X179424704Y-101670119D01*
X179438981Y-101704082D01*
X179452749Y-101738160D01*
X179455410Y-101743166D01*
X179826713Y-102429875D01*
X179847289Y-102460381D01*
X179867439Y-102491173D01*
X179871016Y-102495559D01*
X179871021Y-102495566D01*
X179871027Y-102495572D01*
X180368635Y-103097077D01*
X180394748Y-103123009D01*
X180420491Y-103149297D01*
X180424859Y-103152911D01*
X181029830Y-103646312D01*
X181060495Y-103666686D01*
X181090842Y-103687465D01*
X181095828Y-103690162D01*
X181785113Y-104056661D01*
X181819134Y-104070683D01*
X181852955Y-104085179D01*
X181858371Y-104086856D01*
X182605716Y-104312493D01*
X182641822Y-104319642D01*
X182677806Y-104327290D01*
X182683443Y-104327883D01*
X182683445Y-104327883D01*
X183460382Y-104404062D01*
X183480059Y-104406000D01*
X184594000Y-104406000D01*
X184594001Y-105594000D01*
X170002619Y-105594000D01*
X170125351Y-105511993D01*
X170261993Y-105375351D01*
X170369351Y-105214678D01*
X170443301Y-105036147D01*
X170480327Y-104850000D01*
X176767157Y-104850000D01*
X176774513Y-104924689D01*
X176796299Y-104996508D01*
X176831678Y-105062696D01*
X176879289Y-105120711D01*
X176937304Y-105168322D01*
X177003492Y-105203701D01*
X177075311Y-105225487D01*
X177150000Y-105232843D01*
X177777750Y-105231000D01*
X177873000Y-105135750D01*
X177873000Y-104127000D01*
X178127000Y-104127000D01*
X178127000Y-105135750D01*
X178222250Y-105231000D01*
X178850000Y-105232843D01*
X178924689Y-105225487D01*
X178996508Y-105203701D01*
X179062696Y-105168322D01*
X179120711Y-105120711D01*
X179168322Y-105062696D01*
X179203701Y-104996508D01*
X179225487Y-104924689D01*
X179232843Y-104850000D01*
X179231000Y-104222250D01*
X179135750Y-104127000D01*
X178127000Y-104127000D01*
X177873000Y-104127000D01*
X176864250Y-104127000D01*
X176769000Y-104222250D01*
X176767157Y-104850000D01*
X170480327Y-104850000D01*
X170481000Y-104846620D01*
X170481000Y-104653380D01*
X170443301Y-104463853D01*
X170369351Y-104285322D01*
X170261993Y-104124649D01*
X170125351Y-103988007D01*
X169964678Y-103880649D01*
X169786147Y-103806699D01*
X169596620Y-103769000D01*
X169403380Y-103769000D01*
X169213853Y-103806699D01*
X169035322Y-103880649D01*
X168874649Y-103988007D01*
X168738007Y-104124649D01*
X168630649Y-104285322D01*
X168556699Y-104463853D01*
X168519000Y-104653380D01*
X168519000Y-104846620D01*
X168556699Y-105036147D01*
X168630649Y-105214678D01*
X168738007Y-105375351D01*
X168874649Y-105511993D01*
X168997381Y-105594000D01*
X131002619Y-105594000D01*
X131125351Y-105511993D01*
X131261993Y-105375351D01*
X131369351Y-105214678D01*
X131443301Y-105036147D01*
X131481000Y-104846620D01*
X131481000Y-104653380D01*
X131443301Y-104463853D01*
X131369351Y-104285322D01*
X131261993Y-104124649D01*
X131125351Y-103988007D01*
X130964678Y-103880649D01*
X130786147Y-103806699D01*
X130596620Y-103769000D01*
X130403380Y-103769000D01*
X130213853Y-103806699D01*
X130035322Y-103880649D01*
X129874649Y-103988007D01*
X129738007Y-104124649D01*
X129630649Y-104285322D01*
X129556699Y-104463853D01*
X129519000Y-104653380D01*
X129519000Y-104846620D01*
X129556699Y-105036147D01*
X129630649Y-105214678D01*
X129738007Y-105375351D01*
X129874649Y-105511993D01*
X129997381Y-105594000D01*
X115406000Y-105594000D01*
X115406000Y-104850000D01*
X120767157Y-104850000D01*
X120774513Y-104924689D01*
X120796299Y-104996508D01*
X120831678Y-105062696D01*
X120879289Y-105120711D01*
X120937304Y-105168322D01*
X121003492Y-105203701D01*
X121075311Y-105225487D01*
X121150000Y-105232843D01*
X121777750Y-105231000D01*
X121873000Y-105135750D01*
X121873000Y-104127000D01*
X122127000Y-104127000D01*
X122127000Y-105135750D01*
X122222250Y-105231000D01*
X122850000Y-105232843D01*
X122924689Y-105225487D01*
X122996508Y-105203701D01*
X123062696Y-105168322D01*
X123120711Y-105120711D01*
X123168322Y-105062696D01*
X123203701Y-104996508D01*
X123225487Y-104924689D01*
X123232843Y-104850000D01*
X123231000Y-104222250D01*
X123135750Y-104127000D01*
X122127000Y-104127000D01*
X121873000Y-104127000D01*
X120864250Y-104127000D01*
X120769000Y-104222250D01*
X120767157Y-104850000D01*
X115406000Y-104850000D01*
X115406000Y-104406000D01*
X116519941Y-104406000D01*
X116521356Y-104405861D01*
X116558684Y-104405600D01*
X116577029Y-104403672D01*
X116595467Y-104403672D01*
X116601106Y-104403080D01*
X117376903Y-104316060D01*
X117412961Y-104308396D01*
X117448993Y-104301261D01*
X117454399Y-104299588D01*
X117454409Y-104299586D01*
X117454418Y-104299582D01*
X118198530Y-104063537D01*
X118232371Y-104049033D01*
X118266373Y-104035018D01*
X118271360Y-104032322D01*
X118955460Y-103656234D01*
X118985825Y-103635443D01*
X119016471Y-103615081D01*
X119020840Y-103611468D01*
X119570796Y-103150000D01*
X120767157Y-103150000D01*
X120769000Y-103777750D01*
X120864250Y-103873000D01*
X121873000Y-103873000D01*
X121873000Y-102864250D01*
X122127000Y-102864250D01*
X122127000Y-103873000D01*
X123135750Y-103873000D01*
X123231000Y-103777750D01*
X123232843Y-103150000D01*
X176767157Y-103150000D01*
X176769000Y-103777750D01*
X176864250Y-103873000D01*
X177873000Y-103873000D01*
X177873000Y-102864250D01*
X178127000Y-102864250D01*
X178127000Y-103873000D01*
X179135750Y-103873000D01*
X179231000Y-103777750D01*
X179232843Y-103150000D01*
X179225487Y-103075311D01*
X179203701Y-103003492D01*
X179168322Y-102937304D01*
X179120711Y-102879289D01*
X179062696Y-102831678D01*
X178996508Y-102796299D01*
X178924689Y-102774513D01*
X178850000Y-102767157D01*
X178222250Y-102769000D01*
X178127000Y-102864250D01*
X177873000Y-102864250D01*
X177777750Y-102769000D01*
X177150000Y-102767157D01*
X177075311Y-102774513D01*
X177003492Y-102796299D01*
X176937304Y-102831678D01*
X176879289Y-102879289D01*
X176831678Y-102937304D01*
X176796299Y-103003492D01*
X176774513Y-103075311D01*
X176767157Y-103150000D01*
X123232843Y-103150000D01*
X123225487Y-103075311D01*
X123203701Y-103003492D01*
X123168322Y-102937304D01*
X123120711Y-102879289D01*
X123062696Y-102831678D01*
X122996508Y-102796299D01*
X122924689Y-102774513D01*
X122850000Y-102767157D01*
X122222250Y-102769000D01*
X122127000Y-102864250D01*
X121873000Y-102864250D01*
X121777750Y-102769000D01*
X121150000Y-102767157D01*
X121075311Y-102774513D01*
X121003492Y-102796299D01*
X120937304Y-102831678D01*
X120879289Y-102879289D01*
X120831678Y-102937304D01*
X120796299Y-103003492D01*
X120774513Y-103075311D01*
X120767157Y-103150000D01*
X119570796Y-103150000D01*
X119618863Y-103109667D01*
X119644639Y-103083346D01*
X119670719Y-103057447D01*
X119674297Y-103053060D01*
X119674303Y-103053054D01*
X119674307Y-103053047D01*
X120163468Y-102444654D01*
X120183612Y-102413870D01*
X120204194Y-102383356D01*
X120206856Y-102378351D01*
X120568534Y-101686524D01*
X120582337Y-101652361D01*
X120596577Y-101618484D01*
X120598214Y-101613063D01*
X120598217Y-101613056D01*
X120598218Y-101613049D01*
X120818630Y-100864156D01*
X120825527Y-100827999D01*
X120832924Y-100791964D01*
X120833478Y-100786322D01*
X120847978Y-100627000D01*
X121091151Y-100627000D01*
X120971509Y-100772784D01*
X120971509Y-100772784D01*
G37*
X120971509Y-100772784D02*
X120857202Y-100986637D01*
X120786812Y-101218682D01*
X120763044Y-101460000D01*
X120786812Y-101701318D01*
X120857202Y-101933363D01*
X120971509Y-102147216D01*
X121125340Y-102334660D01*
X121312784Y-102488491D01*
X121526637Y-102602798D01*
X121758682Y-102673188D01*
X121939528Y-102691000D01*
X122060472Y-102691000D01*
X122241318Y-102673188D01*
X122473363Y-102602798D01*
X122687216Y-102488491D01*
X122874660Y-102334660D01*
X123028491Y-102147216D01*
X123142798Y-101933363D01*
X123213188Y-101701318D01*
X123236956Y-101460000D01*
X123213188Y-101218682D01*
X123142798Y-100986637D01*
X123028491Y-100772784D01*
X122908849Y-100627000D01*
X177091151Y-100627000D01*
X176971509Y-100772784D01*
X176857202Y-100986637D01*
X176786812Y-101218682D01*
X176763044Y-101460000D01*
X176786812Y-101701318D01*
X176857202Y-101933363D01*
X176971509Y-102147216D01*
X177125340Y-102334660D01*
X177312784Y-102488491D01*
X177526637Y-102602798D01*
X177758682Y-102673188D01*
X177939528Y-102691000D01*
X178060472Y-102691000D01*
X178241318Y-102673188D01*
X178473363Y-102602798D01*
X178687216Y-102488491D01*
X178874660Y-102334660D01*
X179028491Y-102147216D01*
X179142798Y-101933363D01*
X179213188Y-101701318D01*
X179236956Y-101460000D01*
X179213188Y-101218682D01*
X179142798Y-100986637D01*
X179028491Y-100772784D01*
X178908849Y-100627000D01*
X179154826Y-100627000D01*
X179177923Y-100846751D01*
X179185329Y-100882830D01*
X179192218Y-100918942D01*
X179193856Y-100924369D01*
X179424704Y-101670119D01*
X179438981Y-101704082D01*
X179452749Y-101738160D01*
X179455410Y-101743166D01*
X179826713Y-102429875D01*
X179847289Y-102460381D01*
X179867439Y-102491173D01*
X179871016Y-102495559D01*
X179871021Y-102495566D01*
X179871027Y-102495572D01*
X180368635Y-103097077D01*
X180394748Y-103123009D01*
X180420491Y-103149297D01*
X180424859Y-103152911D01*
X181029830Y-103646312D01*
X181060495Y-103666686D01*
X181090842Y-103687465D01*
X181095828Y-103690162D01*
X181785113Y-104056661D01*
X181819134Y-104070683D01*
X181852955Y-104085179D01*
X181858371Y-104086856D01*
X182605716Y-104312493D01*
X182641822Y-104319642D01*
X182677806Y-104327290D01*
X182683443Y-104327883D01*
X182683445Y-104327883D01*
X183460382Y-104404062D01*
X183480059Y-104406000D01*
X184594000Y-104406000D01*
X184594001Y-105594000D01*
X170002619Y-105594000D01*
X170125351Y-105511993D01*
X170261993Y-105375351D01*
X170369351Y-105214678D01*
X170443301Y-105036147D01*
X170480327Y-104850000D01*
X176767157Y-104850000D01*
X176774513Y-104924689D01*
X176796299Y-104996508D01*
X176831678Y-105062696D01*
X176879289Y-105120711D01*
X176937304Y-105168322D01*
X177003492Y-105203701D01*
X177075311Y-105225487D01*
X177150000Y-105232843D01*
X177777750Y-105231000D01*
X177873000Y-105135750D01*
X177873000Y-104127000D01*
X178127000Y-104127000D01*
X178127000Y-105135750D01*
X178222250Y-105231000D01*
X178850000Y-105232843D01*
X178924689Y-105225487D01*
X178996508Y-105203701D01*
X179062696Y-105168322D01*
X179120711Y-105120711D01*
X179168322Y-105062696D01*
X179203701Y-104996508D01*
X179225487Y-104924689D01*
X179232843Y-104850000D01*
X179231000Y-104222250D01*
X179135750Y-104127000D01*
X178127000Y-104127000D01*
X177873000Y-104127000D01*
X176864250Y-104127000D01*
X176769000Y-104222250D01*
X176767157Y-104850000D01*
X170480327Y-104850000D01*
X170481000Y-104846620D01*
X170481000Y-104653380D01*
X170443301Y-104463853D01*
X170369351Y-104285322D01*
X170261993Y-104124649D01*
X170125351Y-103988007D01*
X169964678Y-103880649D01*
X169786147Y-103806699D01*
X169596620Y-103769000D01*
X169403380Y-103769000D01*
X169213853Y-103806699D01*
X169035322Y-103880649D01*
X168874649Y-103988007D01*
X168738007Y-104124649D01*
X168630649Y-104285322D01*
X168556699Y-104463853D01*
X168519000Y-104653380D01*
X168519000Y-104846620D01*
X168556699Y-105036147D01*
X168630649Y-105214678D01*
X168738007Y-105375351D01*
X168874649Y-105511993D01*
X168997381Y-105594000D01*
X131002619Y-105594000D01*
X131125351Y-105511993D01*
X131261993Y-105375351D01*
X131369351Y-105214678D01*
X131443301Y-105036147D01*
X131481000Y-104846620D01*
X131481000Y-104653380D01*
X131443301Y-104463853D01*
X131369351Y-104285322D01*
X131261993Y-104124649D01*
X131125351Y-103988007D01*
X130964678Y-103880649D01*
X130786147Y-103806699D01*
X130596620Y-103769000D01*
X130403380Y-103769000D01*
X130213853Y-103806699D01*
X130035322Y-103880649D01*
X129874649Y-103988007D01*
X129738007Y-104124649D01*
X129630649Y-104285322D01*
X129556699Y-104463853D01*
X129519000Y-104653380D01*
X129519000Y-104846620D01*
X129556699Y-105036147D01*
X129630649Y-105214678D01*
X129738007Y-105375351D01*
X129874649Y-105511993D01*
X129997381Y-105594000D01*
X115406000Y-105594000D01*
X115406000Y-104850000D01*
X120767157Y-104850000D01*
X120774513Y-104924689D01*
X120796299Y-104996508D01*
X120831678Y-105062696D01*
X120879289Y-105120711D01*
X120937304Y-105168322D01*
X121003492Y-105203701D01*
X121075311Y-105225487D01*
X121150000Y-105232843D01*
X121777750Y-105231000D01*
X121873000Y-105135750D01*
X121873000Y-104127000D01*
X122127000Y-104127000D01*
X122127000Y-105135750D01*
X122222250Y-105231000D01*
X122850000Y-105232843D01*
X122924689Y-105225487D01*
X122996508Y-105203701D01*
X123062696Y-105168322D01*
X123120711Y-105120711D01*
X123168322Y-105062696D01*
X123203701Y-104996508D01*
X123225487Y-104924689D01*
X123232843Y-104850000D01*
X123231000Y-104222250D01*
X123135750Y-104127000D01*
X122127000Y-104127000D01*
X121873000Y-104127000D01*
X120864250Y-104127000D01*
X120769000Y-104222250D01*
X120767157Y-104850000D01*
X115406000Y-104850000D01*
X115406000Y-104406000D01*
X116519941Y-104406000D01*
X116521356Y-104405861D01*
X116558684Y-104405600D01*
X116577029Y-104403672D01*
X116595467Y-104403672D01*
X116601106Y-104403080D01*
X117376903Y-104316060D01*
X117412961Y-104308396D01*
X117448993Y-104301261D01*
X117454399Y-104299588D01*
X117454409Y-104299586D01*
X117454418Y-104299582D01*
X118198530Y-104063537D01*
X118232371Y-104049033D01*
X118266373Y-104035018D01*
X118271360Y-104032322D01*
X118955460Y-103656234D01*
X118985825Y-103635443D01*
X119016471Y-103615081D01*
X119020840Y-103611468D01*
X119570796Y-103150000D01*
X120767157Y-103150000D01*
X120769000Y-103777750D01*
X120864250Y-103873000D01*
X121873000Y-103873000D01*
X121873000Y-102864250D01*
X122127000Y-102864250D01*
X122127000Y-103873000D01*
X123135750Y-103873000D01*
X123231000Y-103777750D01*
X123232843Y-103150000D01*
X176767157Y-103150000D01*
X176769000Y-103777750D01*
X176864250Y-103873000D01*
X177873000Y-103873000D01*
X177873000Y-102864250D01*
X178127000Y-102864250D01*
X178127000Y-103873000D01*
X179135750Y-103873000D01*
X179231000Y-103777750D01*
X179232843Y-103150000D01*
X179225487Y-103075311D01*
X179203701Y-103003492D01*
X179168322Y-102937304D01*
X179120711Y-102879289D01*
X179062696Y-102831678D01*
X178996508Y-102796299D01*
X178924689Y-102774513D01*
X178850000Y-102767157D01*
X178222250Y-102769000D01*
X178127000Y-102864250D01*
X177873000Y-102864250D01*
X177777750Y-102769000D01*
X177150000Y-102767157D01*
X177075311Y-102774513D01*
X177003492Y-102796299D01*
X176937304Y-102831678D01*
X176879289Y-102879289D01*
X176831678Y-102937304D01*
X176796299Y-103003492D01*
X176774513Y-103075311D01*
X176767157Y-103150000D01*
X123232843Y-103150000D01*
X123225487Y-103075311D01*
X123203701Y-103003492D01*
X123168322Y-102937304D01*
X123120711Y-102879289D01*
X123062696Y-102831678D01*
X122996508Y-102796299D01*
X122924689Y-102774513D01*
X122850000Y-102767157D01*
X122222250Y-102769000D01*
X122127000Y-102864250D01*
X121873000Y-102864250D01*
X121777750Y-102769000D01*
X121150000Y-102767157D01*
X121075311Y-102774513D01*
X121003492Y-102796299D01*
X120937304Y-102831678D01*
X120879289Y-102879289D01*
X120831678Y-102937304D01*
X120796299Y-103003492D01*
X120774513Y-103075311D01*
X120767157Y-103150000D01*
X119570796Y-103150000D01*
X119618863Y-103109667D01*
X119644639Y-103083346D01*
X119670719Y-103057447D01*
X119674297Y-103053060D01*
X119674303Y-103053054D01*
X119674307Y-103053047D01*
X120163468Y-102444654D01*
X120183612Y-102413870D01*
X120204194Y-102383356D01*
X120206856Y-102378351D01*
X120568534Y-101686524D01*
X120582337Y-101652361D01*
X120596577Y-101618484D01*
X120598214Y-101613063D01*
X120598217Y-101613056D01*
X120598218Y-101613049D01*
X120818630Y-100864156D01*
X120825527Y-100827999D01*
X120832924Y-100791964D01*
X120833478Y-100786322D01*
X120847978Y-100627000D01*
X121091151Y-100627000D01*
X120971509Y-100772784D01*
M02*
