G04 #@! TF.GenerationSoftware,KiCad,Pcbnew,(5.1.4-0-10_14)*
G04 #@! TF.CreationDate,2019-08-25T21:06:09+02:00*
G04 #@! TF.ProjectId,Streifen,53747265-6966-4656-9e2e-6b696361645f,rev?*
G04 #@! TF.SameCoordinates,Original*
G04 #@! TF.FileFunction,Soldermask,Bot*
G04 #@! TF.FilePolarity,Negative*
%FSLAX46Y46*%
G04 Gerber Fmt 4.6, Leading zero omitted, Abs format (unit mm)*
G04 Created by KiCad (PCBNEW (5.1.4-0-10_14)) date 2019-08-25 21:06:09*
%MOMM*%
%LPD*%
G04 APERTURE LIST*
%ADD10C,0.100000*%
G04 APERTURE END LIST*
D10*
G36*
X169689890Y-104124017D02*
G01*
X169808364Y-104173091D01*
X169914988Y-104244335D01*
X170005665Y-104335012D01*
X170076909Y-104441636D01*
X170125983Y-104560110D01*
X170151000Y-104685882D01*
X170151000Y-104814118D01*
X170125983Y-104939890D01*
X170076909Y-105058364D01*
X170005665Y-105164988D01*
X169914988Y-105255665D01*
X169808364Y-105326909D01*
X169808363Y-105326910D01*
X169808362Y-105326910D01*
X169689890Y-105375983D01*
X169564119Y-105401000D01*
X169435881Y-105401000D01*
X169310110Y-105375983D01*
X169191638Y-105326910D01*
X169191637Y-105326910D01*
X169191636Y-105326909D01*
X169085012Y-105255665D01*
X168994335Y-105164988D01*
X168923091Y-105058364D01*
X168874017Y-104939890D01*
X168849000Y-104814118D01*
X168849000Y-104685882D01*
X168874017Y-104560110D01*
X168923091Y-104441636D01*
X168994335Y-104335012D01*
X169085012Y-104244335D01*
X169191636Y-104173091D01*
X169310110Y-104124017D01*
X169435881Y-104099000D01*
X169564119Y-104099000D01*
X169689890Y-104124017D01*
X169689890Y-104124017D01*
G37*
G36*
X130689890Y-104124017D02*
G01*
X130808364Y-104173091D01*
X130914988Y-104244335D01*
X131005665Y-104335012D01*
X131076909Y-104441636D01*
X131125983Y-104560110D01*
X131151000Y-104685882D01*
X131151000Y-104814118D01*
X131125983Y-104939890D01*
X131076909Y-105058364D01*
X131005665Y-105164988D01*
X130914988Y-105255665D01*
X130808364Y-105326909D01*
X130808363Y-105326910D01*
X130808362Y-105326910D01*
X130689890Y-105375983D01*
X130564119Y-105401000D01*
X130435881Y-105401000D01*
X130310110Y-105375983D01*
X130191638Y-105326910D01*
X130191637Y-105326910D01*
X130191636Y-105326909D01*
X130085012Y-105255665D01*
X129994335Y-105164988D01*
X129923091Y-105058364D01*
X129874017Y-104939890D01*
X129849000Y-104814118D01*
X129849000Y-104685882D01*
X129874017Y-104560110D01*
X129923091Y-104441636D01*
X129994335Y-104335012D01*
X130085012Y-104244335D01*
X130191636Y-104173091D01*
X130310110Y-104124017D01*
X130435881Y-104099000D01*
X130564119Y-104099000D01*
X130689890Y-104124017D01*
X130689890Y-104124017D01*
G37*
G36*
X178901000Y-104901000D02*
G01*
X177099000Y-104901000D01*
X177099000Y-103099000D01*
X178901000Y-103099000D01*
X178901000Y-104901000D01*
X178901000Y-104901000D01*
G37*
G36*
X122901000Y-104901000D02*
G01*
X121099000Y-104901000D01*
X121099000Y-103099000D01*
X122901000Y-103099000D01*
X122901000Y-104901000D01*
X122901000Y-104901000D01*
G37*
G36*
X178110443Y-100565519D02*
G01*
X178176627Y-100572037D01*
X178346466Y-100623557D01*
X178502991Y-100707222D01*
X178538729Y-100736552D01*
X178640186Y-100819814D01*
X178723448Y-100921271D01*
X178752778Y-100957009D01*
X178836443Y-101113534D01*
X178887963Y-101283373D01*
X178905359Y-101460000D01*
X178887963Y-101636627D01*
X178836443Y-101806466D01*
X178752778Y-101962991D01*
X178723448Y-101998729D01*
X178640186Y-102100186D01*
X178538729Y-102183448D01*
X178502991Y-102212778D01*
X178346466Y-102296443D01*
X178176627Y-102347963D01*
X178110442Y-102354482D01*
X178044260Y-102361000D01*
X177955740Y-102361000D01*
X177889557Y-102354481D01*
X177823373Y-102347963D01*
X177653534Y-102296443D01*
X177497009Y-102212778D01*
X177461271Y-102183448D01*
X177359814Y-102100186D01*
X177276552Y-101998729D01*
X177247222Y-101962991D01*
X177163557Y-101806466D01*
X177112037Y-101636627D01*
X177094641Y-101460000D01*
X177112037Y-101283373D01*
X177163557Y-101113534D01*
X177247222Y-100957009D01*
X177276552Y-100921271D01*
X177359814Y-100819814D01*
X177461271Y-100736552D01*
X177497009Y-100707222D01*
X177653534Y-100623557D01*
X177823373Y-100572037D01*
X177889557Y-100565519D01*
X177955740Y-100559000D01*
X178044260Y-100559000D01*
X178110443Y-100565519D01*
X178110443Y-100565519D01*
G37*
G36*
X122110443Y-100565519D02*
G01*
X122176627Y-100572037D01*
X122346466Y-100623557D01*
X122502991Y-100707222D01*
X122538729Y-100736552D01*
X122640186Y-100819814D01*
X122723448Y-100921271D01*
X122752778Y-100957009D01*
X122836443Y-101113534D01*
X122887963Y-101283373D01*
X122905359Y-101460000D01*
X122887963Y-101636627D01*
X122836443Y-101806466D01*
X122752778Y-101962991D01*
X122723448Y-101998729D01*
X122640186Y-102100186D01*
X122538729Y-102183448D01*
X122502991Y-102212778D01*
X122346466Y-102296443D01*
X122176627Y-102347963D01*
X122110442Y-102354482D01*
X122044260Y-102361000D01*
X121955740Y-102361000D01*
X121889557Y-102354481D01*
X121823373Y-102347963D01*
X121653534Y-102296443D01*
X121497009Y-102212778D01*
X121461271Y-102183448D01*
X121359814Y-102100186D01*
X121276552Y-101998729D01*
X121247222Y-101962991D01*
X121163557Y-101806466D01*
X121112037Y-101636627D01*
X121094641Y-101460000D01*
X121112037Y-101283373D01*
X121163557Y-101113534D01*
X121247222Y-100957009D01*
X121276552Y-100921271D01*
X121359814Y-100819814D01*
X121461271Y-100736552D01*
X121497009Y-100707222D01*
X121653534Y-100623557D01*
X121823373Y-100572037D01*
X121889557Y-100565519D01*
X121955740Y-100559000D01*
X122044260Y-100559000D01*
X122110443Y-100565519D01*
X122110443Y-100565519D01*
G37*
G36*
X178110443Y-98025519D02*
G01*
X178176627Y-98032037D01*
X178346466Y-98083557D01*
X178502991Y-98167222D01*
X178538729Y-98196552D01*
X178640186Y-98279814D01*
X178723448Y-98381271D01*
X178752778Y-98417009D01*
X178836443Y-98573534D01*
X178887963Y-98743373D01*
X178905359Y-98920000D01*
X178887963Y-99096627D01*
X178836443Y-99266466D01*
X178752778Y-99422991D01*
X178723448Y-99458729D01*
X178640186Y-99560186D01*
X178538729Y-99643448D01*
X178502991Y-99672778D01*
X178346466Y-99756443D01*
X178176627Y-99807963D01*
X178110442Y-99814482D01*
X178044260Y-99821000D01*
X177955740Y-99821000D01*
X177889558Y-99814482D01*
X177823373Y-99807963D01*
X177653534Y-99756443D01*
X177497009Y-99672778D01*
X177461271Y-99643448D01*
X177359814Y-99560186D01*
X177276552Y-99458729D01*
X177247222Y-99422991D01*
X177163557Y-99266466D01*
X177112037Y-99096627D01*
X177094641Y-98920000D01*
X177112037Y-98743373D01*
X177163557Y-98573534D01*
X177247222Y-98417009D01*
X177276552Y-98381271D01*
X177359814Y-98279814D01*
X177461271Y-98196552D01*
X177497009Y-98167222D01*
X177653534Y-98083557D01*
X177823373Y-98032037D01*
X177889557Y-98025519D01*
X177955740Y-98019000D01*
X178044260Y-98019000D01*
X178110443Y-98025519D01*
X178110443Y-98025519D01*
G37*
G36*
X122110443Y-98025519D02*
G01*
X122176627Y-98032037D01*
X122346466Y-98083557D01*
X122502991Y-98167222D01*
X122538729Y-98196552D01*
X122640186Y-98279814D01*
X122723448Y-98381271D01*
X122752778Y-98417009D01*
X122836443Y-98573534D01*
X122887963Y-98743373D01*
X122905359Y-98920000D01*
X122887963Y-99096627D01*
X122836443Y-99266466D01*
X122752778Y-99422991D01*
X122723448Y-99458729D01*
X122640186Y-99560186D01*
X122538729Y-99643448D01*
X122502991Y-99672778D01*
X122346466Y-99756443D01*
X122176627Y-99807963D01*
X122110442Y-99814482D01*
X122044260Y-99821000D01*
X121955740Y-99821000D01*
X121889558Y-99814482D01*
X121823373Y-99807963D01*
X121653534Y-99756443D01*
X121497009Y-99672778D01*
X121461271Y-99643448D01*
X121359814Y-99560186D01*
X121276552Y-99458729D01*
X121247222Y-99422991D01*
X121163557Y-99266466D01*
X121112037Y-99096627D01*
X121094641Y-98920000D01*
X121112037Y-98743373D01*
X121163557Y-98573534D01*
X121247222Y-98417009D01*
X121276552Y-98381271D01*
X121359814Y-98279814D01*
X121461271Y-98196552D01*
X121497009Y-98167222D01*
X121653534Y-98083557D01*
X121823373Y-98032037D01*
X121889557Y-98025519D01*
X121955740Y-98019000D01*
X122044260Y-98019000D01*
X122110443Y-98025519D01*
X122110443Y-98025519D01*
G37*
G36*
X178110443Y-95485519D02*
G01*
X178176627Y-95492037D01*
X178346466Y-95543557D01*
X178502991Y-95627222D01*
X178538729Y-95656552D01*
X178640186Y-95739814D01*
X178711662Y-95826909D01*
X178752778Y-95877009D01*
X178836443Y-96033534D01*
X178887963Y-96203373D01*
X178905359Y-96380000D01*
X178887963Y-96556627D01*
X178836443Y-96726466D01*
X178752778Y-96882991D01*
X178723448Y-96918729D01*
X178640186Y-97020186D01*
X178538729Y-97103448D01*
X178502991Y-97132778D01*
X178346466Y-97216443D01*
X178176627Y-97267963D01*
X178110443Y-97274481D01*
X178044260Y-97281000D01*
X177955740Y-97281000D01*
X177889557Y-97274481D01*
X177823373Y-97267963D01*
X177653534Y-97216443D01*
X177497009Y-97132778D01*
X177461271Y-97103448D01*
X177359814Y-97020186D01*
X177276552Y-96918729D01*
X177247222Y-96882991D01*
X177163557Y-96726466D01*
X177112037Y-96556627D01*
X177094641Y-96380000D01*
X177112037Y-96203373D01*
X177163557Y-96033534D01*
X177247222Y-95877009D01*
X177288338Y-95826909D01*
X177359814Y-95739814D01*
X177461271Y-95656552D01*
X177497009Y-95627222D01*
X177653534Y-95543557D01*
X177823373Y-95492037D01*
X177889557Y-95485519D01*
X177955740Y-95479000D01*
X178044260Y-95479000D01*
X178110443Y-95485519D01*
X178110443Y-95485519D01*
G37*
G36*
X122110443Y-95485519D02*
G01*
X122176627Y-95492037D01*
X122346466Y-95543557D01*
X122502991Y-95627222D01*
X122538729Y-95656552D01*
X122640186Y-95739814D01*
X122711662Y-95826909D01*
X122752778Y-95877009D01*
X122836443Y-96033534D01*
X122887963Y-96203373D01*
X122905359Y-96380000D01*
X122887963Y-96556627D01*
X122836443Y-96726466D01*
X122752778Y-96882991D01*
X122723448Y-96918729D01*
X122640186Y-97020186D01*
X122538729Y-97103448D01*
X122502991Y-97132778D01*
X122346466Y-97216443D01*
X122176627Y-97267963D01*
X122110443Y-97274481D01*
X122044260Y-97281000D01*
X121955740Y-97281000D01*
X121889557Y-97274481D01*
X121823373Y-97267963D01*
X121653534Y-97216443D01*
X121497009Y-97132778D01*
X121461271Y-97103448D01*
X121359814Y-97020186D01*
X121276552Y-96918729D01*
X121247222Y-96882991D01*
X121163557Y-96726466D01*
X121112037Y-96556627D01*
X121094641Y-96380000D01*
X121112037Y-96203373D01*
X121163557Y-96033534D01*
X121247222Y-95877009D01*
X121288338Y-95826909D01*
X121359814Y-95739814D01*
X121461271Y-95656552D01*
X121497009Y-95627222D01*
X121653534Y-95543557D01*
X121823373Y-95492037D01*
X121889557Y-95485519D01*
X121955740Y-95479000D01*
X122044260Y-95479000D01*
X122110443Y-95485519D01*
X122110443Y-95485519D01*
G37*
G36*
X169689890Y-94624017D02*
G01*
X169808364Y-94673091D01*
X169914988Y-94744335D01*
X170005665Y-94835012D01*
X170076909Y-94941636D01*
X170125983Y-95060110D01*
X170151000Y-95185882D01*
X170151000Y-95314118D01*
X170125983Y-95439890D01*
X170076909Y-95558364D01*
X170005665Y-95664988D01*
X169914988Y-95755665D01*
X169808364Y-95826909D01*
X169808363Y-95826910D01*
X169808362Y-95826910D01*
X169689890Y-95875983D01*
X169564119Y-95901000D01*
X169435881Y-95901000D01*
X169310110Y-95875983D01*
X169191638Y-95826910D01*
X169191637Y-95826910D01*
X169191636Y-95826909D01*
X169085012Y-95755665D01*
X168994335Y-95664988D01*
X168923091Y-95558364D01*
X168874017Y-95439890D01*
X168849000Y-95314118D01*
X168849000Y-95185882D01*
X168874017Y-95060110D01*
X168923091Y-94941636D01*
X168994335Y-94835012D01*
X169085012Y-94744335D01*
X169191636Y-94673091D01*
X169310110Y-94624017D01*
X169435881Y-94599000D01*
X169564119Y-94599000D01*
X169689890Y-94624017D01*
X169689890Y-94624017D01*
G37*
G36*
X130689890Y-94624017D02*
G01*
X130808364Y-94673091D01*
X130914988Y-94744335D01*
X131005665Y-94835012D01*
X131076909Y-94941636D01*
X131125983Y-95060110D01*
X131151000Y-95185882D01*
X131151000Y-95314118D01*
X131125983Y-95439890D01*
X131076909Y-95558364D01*
X131005665Y-95664988D01*
X130914988Y-95755665D01*
X130808364Y-95826909D01*
X130808363Y-95826910D01*
X130808362Y-95826910D01*
X130689890Y-95875983D01*
X130564119Y-95901000D01*
X130435881Y-95901000D01*
X130310110Y-95875983D01*
X130191638Y-95826910D01*
X130191637Y-95826910D01*
X130191636Y-95826909D01*
X130085012Y-95755665D01*
X129994335Y-95664988D01*
X129923091Y-95558364D01*
X129874017Y-95439890D01*
X129849000Y-95314118D01*
X129849000Y-95185882D01*
X129874017Y-95060110D01*
X129923091Y-94941636D01*
X129994335Y-94835012D01*
X130085012Y-94744335D01*
X130191636Y-94673091D01*
X130310110Y-94624017D01*
X130435881Y-94599000D01*
X130564119Y-94599000D01*
X130689890Y-94624017D01*
X130689890Y-94624017D01*
G37*
M02*
