G04 #@! TF.GenerationSoftware,KiCad,Pcbnew,(5.1.4-0-10_14)*
G04 #@! TF.CreationDate,2019-08-25T21:06:09+02:00*
G04 #@! TF.ProjectId,Streifen,53747265-6966-4656-9e2e-6b696361645f,rev?*
G04 #@! TF.SameCoordinates,Original*
G04 #@! TF.FileFunction,Paste,Top*
G04 #@! TF.FilePolarity,Positive*
%FSLAX46Y46*%
G04 Gerber Fmt 4.6, Leading zero omitted, Abs format (unit mm)*
G04 Created by KiCad (PCBNEW (5.1.4-0-10_14)) date 2019-08-25 21:06:09*
%MOMM*%
%LPD*%
G04 APERTURE LIST*
%ADD10R,1.100000X2.000000*%
G04 APERTURE END LIST*
D10*
X128950000Y-102400000D03*
X127250000Y-102400000D03*
X125550000Y-102400000D03*
X125550000Y-97600000D03*
X127250000Y-97600000D03*
X128950000Y-97600000D03*
X135450000Y-97600000D03*
X133750000Y-97600000D03*
X132050000Y-97600000D03*
X132050000Y-102400000D03*
X133750000Y-102400000D03*
X135450000Y-102400000D03*
X141950000Y-102400000D03*
X140250000Y-102400000D03*
X138550000Y-102400000D03*
X138550000Y-97600000D03*
X140250000Y-97600000D03*
X141950000Y-97600000D03*
X148450000Y-97600000D03*
X146750000Y-97600000D03*
X145050000Y-97600000D03*
X145050000Y-102400000D03*
X146750000Y-102400000D03*
X148450000Y-102400000D03*
X154950000Y-102400000D03*
X153250000Y-102400000D03*
X151550000Y-102400000D03*
X151550000Y-97600000D03*
X153250000Y-97600000D03*
X154950000Y-97600000D03*
X161450000Y-97600000D03*
X159750000Y-97600000D03*
X158050000Y-97600000D03*
X158050000Y-102400000D03*
X159750000Y-102400000D03*
X161450000Y-102400000D03*
X167950000Y-102400000D03*
X166250000Y-102400000D03*
X164550000Y-102400000D03*
X164550000Y-97600000D03*
X166250000Y-97600000D03*
X167950000Y-97600000D03*
X174450000Y-97600000D03*
X172750000Y-97600000D03*
X171050000Y-97600000D03*
X171050000Y-102400000D03*
X172750000Y-102400000D03*
X174450000Y-102400000D03*
M02*
