G04 #@! TF.GenerationSoftware,KiCad,Pcbnew,(5.1.4-0-10_14)*
G04 #@! TF.CreationDate,2019-08-25T21:06:09+02:00*
G04 #@! TF.ProjectId,Streifen,53747265-6966-4656-9e2e-6b696361645f,rev?*
G04 #@! TF.SameCoordinates,Original*
G04 #@! TF.FileFunction,Legend,Top*
G04 #@! TF.FilePolarity,Positive*
%FSLAX46Y46*%
G04 Gerber Fmt 4.6, Leading zero omitted, Abs format (unit mm)*
G04 Created by KiCad (PCBNEW (5.1.4-0-10_14)) date 2019-08-25 21:06:09*
%MOMM*%
%LPD*%
G04 APERTURE LIST*
%ADD10C,0.100000*%
%ADD11C,0.120000*%
G04 APERTURE END LIST*
D10*
G36*
X151250000Y-104750000D02*
G01*
X150250000Y-105500000D01*
X150250000Y-105000000D01*
X149000000Y-105000000D01*
X149000000Y-104500000D01*
X150250000Y-104500000D01*
X150250000Y-104000000D01*
X151250000Y-104750000D01*
G37*
X151250000Y-104750000D02*
X150250000Y-105500000D01*
X150250000Y-105000000D01*
X149000000Y-105000000D01*
X149000000Y-104500000D01*
X150250000Y-104500000D01*
X150250000Y-104000000D01*
X151250000Y-104750000D01*
G36*
X151250000Y-95250000D02*
G01*
X150250000Y-96000000D01*
X150250000Y-95500000D01*
X149000000Y-95500000D01*
X149000000Y-95000000D01*
X150250000Y-95000000D01*
X150250000Y-94500000D01*
X151250000Y-95250000D01*
G37*
X151250000Y-95250000D02*
X150250000Y-96000000D01*
X150250000Y-95500000D01*
X149000000Y-95500000D01*
X149000000Y-95000000D01*
X150250000Y-95000000D01*
X150250000Y-94500000D01*
X151250000Y-95250000D01*
D11*
X124550000Y-102500000D02*
X124550000Y-97500000D01*
X128850000Y-96400000D02*
X129950000Y-96400000D01*
X129950000Y-96400000D02*
X129950000Y-102500000D01*
X136450000Y-96400000D02*
X136450000Y-102500000D01*
X135350000Y-96400000D02*
X136450000Y-96400000D01*
X131050000Y-102500000D02*
X131050000Y-97500000D01*
X137550000Y-102500000D02*
X137550000Y-97500000D01*
X141850000Y-96400000D02*
X142950000Y-96400000D01*
X142950000Y-96400000D02*
X142950000Y-102500000D01*
X149450000Y-96400000D02*
X149450000Y-102500000D01*
X148350000Y-96400000D02*
X149450000Y-96400000D01*
X144050000Y-102500000D02*
X144050000Y-97500000D01*
X150550000Y-102500000D02*
X150550000Y-97500000D01*
X154850000Y-96400000D02*
X155950000Y-96400000D01*
X155950000Y-96400000D02*
X155950000Y-102500000D01*
X162450000Y-96400000D02*
X162450000Y-102500000D01*
X161350000Y-96400000D02*
X162450000Y-96400000D01*
X157050000Y-102500000D02*
X157050000Y-97500000D01*
X163550000Y-102500000D02*
X163550000Y-97500000D01*
X167850000Y-96400000D02*
X168950000Y-96400000D01*
X168950000Y-96400000D02*
X168950000Y-102500000D01*
X175450000Y-96400000D02*
X175450000Y-102500000D01*
X174350000Y-96400000D02*
X175450000Y-96400000D01*
X170050000Y-102500000D02*
X170050000Y-97500000D01*
X123330000Y-105330000D02*
X122000000Y-105330000D01*
X123330000Y-104000000D02*
X123330000Y-105330000D01*
X123330000Y-102730000D02*
X120670000Y-102730000D01*
X120670000Y-102730000D02*
X120670000Y-95050000D01*
X123330000Y-102730000D02*
X123330000Y-95050000D01*
X123330000Y-95050000D02*
X120670000Y-95050000D01*
X179330000Y-95050000D02*
X176670000Y-95050000D01*
X179330000Y-102730000D02*
X179330000Y-95050000D01*
X176670000Y-102730000D02*
X176670000Y-95050000D01*
X179330000Y-102730000D02*
X176670000Y-102730000D01*
X179330000Y-104000000D02*
X179330000Y-105330000D01*
X179330000Y-105330000D02*
X178000000Y-105330000D01*
M02*
